<svg width="16" height="16" viewBox="0 0 16 16" fill="none" xmlns="http://www.w3.org/2000/svg">
<circle cx="8" cy="8" r="8" fill="#2A2A2A"/>
<g clip-path="url(#clip0_1_638)">
<path d="M5.80801 6.83599L9.69401 11.465C9.82116 11.6159 9.99888 11.7154 10.194 11.745V9.05499L6.30701 4.61299C6.17803 4.46622 6.00056 4.37075 5.80701 4.34399L5.80801 6.83599Z" fill="#03FF94"/>
<path d="M5.80801 9.16815V4.34415C5.70149 4.32803 5.59283 4.33316 5.48831 4.35925C5.38378 4.38534 5.28546 4.43186 5.19901 4.49615L4.34201 5.13415C4.23972 5.21047 4.15664 5.3096 4.09935 5.42364C4.04207 5.53769 4.01216 5.66352 4.01201 5.79115L4.00401 9.16915V10.8561C3.99978 10.9774 4.02091 11.0982 4.06602 11.2108C4.11113 11.3234 4.17925 11.4254 4.26601 11.5101C4.39236 11.6406 4.5552 11.7297 4.73315 11.7659C4.9111 11.8021 5.09584 11.7836 5.26308 11.7128C5.43032 11.6421 5.57225 11.5224 5.67022 11.3695C5.76819 11.2166 5.81762 11.0377 5.81201 10.8561L5.80801 9.16815Z" fill="white"/>
<path d="M10.193 6.92206V11.7461C10.2994 11.762 10.4079 11.7568 10.5122 11.7308C10.6165 11.7047 10.7147 11.6582 10.801 11.5941L11.656 10.9561C11.7582 10.8799 11.8413 10.7809 11.8986 10.6671C11.9558 10.5532 11.9858 10.4275 11.986 10.3001L11.994 6.92106H12V5.23506C12.0043 5.11358 11.983 4.99256 11.9378 4.87976C11.8925 4.76696 11.8241 4.66487 11.737 4.58006C11.6105 4.45028 11.4477 4.36174 11.27 4.32601C11.0923 4.29028 10.908 4.30904 10.7411 4.37982C10.5743 4.4506 10.4327 4.57012 10.3349 4.72272C10.2371 4.87531 10.1876 5.05389 10.193 5.23506V6.92206Z" fill="white"/>
<path d="M6.30101 7.42597L5.80701 6.83697V4.34497L6.30101 7.42597Z" fill="#009E5C"/>
<path d="M9.698 8.48901L10.193 9.05501V11.746L9.698 8.48901Z" fill="#009E5C"/>
</g>
<defs>
<clipPath id="clip0_1_638">
<rect width="8" height="8" fill="white" transform="translate(4 4)"/>
</clipPath>
</defs>
</svg>
