<svg width="40" height="40" viewBox="0 0 40 40" fill="none" xmlns="http://www.w3.org/2000/svg">
<circle cx="20" cy="20" r="20" fill="#2A2A2A"/>
<g clip-path="url(#clip0_1_656)">
<path d="M14.52 17.0901L24.235 28.6626C24.5528 29.0399 24.9971 29.2887 25.485 29.3626V22.6376L15.7675 11.5326C15.445 11.1657 15.0013 10.927 14.5175 10.8601L14.52 17.0901Z" fill="#03FF94"/>
<path d="M14.52 22.9201V10.8601C14.2537 10.8198 13.9821 10.8327 13.7207 10.8979C13.4594 10.9631 13.2136 11.0794 12.9975 11.2401L10.855 12.8351C10.5993 13.0259 10.3916 13.2737 10.2484 13.5589C10.1051 13.844 10.0304 14.1586 10.03 14.4776L10.01 22.9226V27.1401C9.99943 27.4432 10.0522 27.7452 10.165 28.0267C10.2778 28.3082 10.4481 28.5631 10.665 28.7751C10.9809 29.1012 11.388 29.3241 11.8329 29.4145C12.2777 29.505 12.7396 29.4587 13.1577 29.2818C13.5758 29.105 13.9306 28.8058 14.1755 28.4235C14.4204 28.0413 14.544 27.5939 14.53 27.1401L14.52 22.9201Z" fill="white"/>
<path d="M25.4824 17.305V29.365C25.7483 29.405 26.0195 29.392 26.2804 29.3268C26.5412 29.2615 26.7866 29.1454 27.0024 28.985L29.1399 27.39C29.3955 27.1996 29.6031 26.9522 29.7463 26.6675C29.8895 26.3828 29.9644 26.0687 29.9649 25.75L29.9849 17.3025H29.9999V13.0875C30.0105 12.7838 29.9575 12.4813 29.8443 12.1993C29.731 11.9173 29.5601 11.6621 29.3424 11.45C29.0261 11.1256 28.6192 10.9042 28.175 10.8149C27.7307 10.7256 27.2699 10.7725 26.8527 10.9494C26.4356 11.1264 26.0816 11.4252 25.8371 11.8067C25.5926 12.1882 25.469 12.6346 25.4824 13.0875V17.305Z" fill="white"/>
<path d="M15.7525 18.565L14.5175 17.0925V10.8625L15.7525 18.565Z" fill="#009E5C"/>
<path d="M24.245 21.2224L25.4825 22.6374V29.3649L24.245 21.2224Z" fill="#009E5C"/>
</g>
<defs>
<clipPath id="clip0_1_656">
<rect width="20" height="20" fill="white" transform="translate(10 10)"/>
</clipPath>
</defs>
</svg>
