<svg width="60" height="60" viewBox="0 0 60 60" fill="none" xmlns="http://www.w3.org/2000/svg">
<circle cx="30" cy="30" r="30" fill="white"/>
<g clip-path="url(#clip0_1_665)">
<path d="M21.232 25.344L36.776 43.86C37.2847 44.4637 37.9955 44.8618 38.776 44.98V34.22L23.228 16.452C22.7121 15.8649 22.0022 15.483 21.228 15.376L21.232 25.344Z" fill="#03FF94"/>
<path d="M21.232 34.6721V15.3761C20.806 15.3116 20.3713 15.3322 19.9532 15.4365C19.5351 15.5409 19.1418 15.727 18.796 15.9841L15.368 18.5361C14.9589 18.8414 14.6266 19.2379 14.3974 19.6941C14.1683 20.1503 14.0486 20.6536 14.048 21.1641L14.016 34.6761V41.4241C13.9991 41.9091 14.0836 42.3922 14.2641 42.8427C14.4445 43.2931 14.717 43.7009 15.064 44.0401C15.5694 44.5618 16.2208 44.9184 16.9326 45.0631C17.6444 45.2078 18.3833 45.1338 19.0523 44.8508C19.7213 44.5678 20.289 44.0891 20.6809 43.4775C21.0728 42.8659 21.2705 42.1501 21.248 41.4241L21.232 34.6721Z" fill="#121212"/>
<path d="M38.772 25.688V44.984C39.1974 45.0479 39.6313 45.0271 40.0487 44.9228C40.466 44.8184 40.8587 44.6326 41.204 44.376L44.624 41.824C45.0328 41.5193 45.365 41.1235 45.5941 40.668C45.8233 40.2125 45.943 39.7099 45.944 39.2L45.976 25.684H46V18.94C46.0169 18.4541 45.9321 17.97 45.7509 17.5188C45.5697 17.0676 45.2962 16.6593 44.948 16.32C44.4419 15.8009 43.7908 15.4467 43.08 15.3038C42.3692 15.1609 41.6319 15.2359 40.9645 15.519C40.297 15.8022 39.7307 16.2802 39.3395 16.8906C38.9483 17.501 38.7505 18.2153 38.772 18.94V25.688Z" fill="#121212"/>
<path d="M23.204 27.7039L21.228 25.3479V15.3799L23.204 27.7039Z" fill="#009E5C"/>
<path d="M36.792 31.9561L38.772 34.2201V44.9841L36.792 31.9561Z" fill="#009E5C"/>
</g>
<defs>
<clipPath id="clip0_1_665">
<rect width="32" height="32" fill="white" transform="translate(14 14)"/>
</clipPath>
</defs>
</svg>
